#!OML:ASF F:\VICON\USERDATA\INSTALL\rory3\rory3.ASF
:FULLY-SPECIFIED
:DEGREES
486
root 2.93445 14.8543 30.3945 621.97 6.56948 -132.898
lowerback 20.0761 -0.340606 -17.6193
upperback -3.32384 -5.34951 -8.37094
thorax -14.6361 -1.09526 1.7505
lowerneck -30.2787 6.90966 0.0692408
upperneck 3.05468 9.17307 5.45541
head 5.19665 5.22598 2.93663
rclavicle -1.27222e-014 1.27222e-013
rhumerus -10.1791 -17.7859 7.34033
rradius 31.4415
rwrist -4.25323
rhand -28.3614 -422.193
rfingers 7.12502
rthumb 178.265 -87.8346
lclavicle -1.27222e-014 1.27222e-013
lhumerus 29.2154 19.7025 11.5029
lradius 27.2515
lwrist 41.3591
lhand -46.594 -747.308
lfingers 7.12502
lthumb -19.3169 1.75246
rfemur -39.099 -9.58246 55.4268
rtibia 54.3474
rfoot -6.15219 -12.8773
rtoes -29.2409
lfemur -100.58 25.4107 1.67764
ltibia 66.5009
lfoot -28.9702 25.4848
ltoes 8.61454
487
root 2.88892 14.8986 30.5615 620.929 8.82815 -132.672
lowerback 20.5015 0.162932 -18.0337
upperback -3.44495 -4.91931 -8.8806
thorax -14.3356 -0.845249 1.42461
lowerneck -29.5263 6.76649 0.40409
upperneck 2.65023 8.91516 5.53035
head 4.98673 5.1181 2.83964
rclavicle 1.65389e-013 1.21656e-013
rhumerus -10.7121 -15.6927 6.42177
rradius 31.4063
rwrist -4.3818
rhand -28.2113 -421.872
rfingers 7.12502
rthumb 178.41 -88.1537
lclavicle 1.65389e-013 1.21656e-013
lhumerus 28.4104 18.1471 12.3375
lradius 27.4451
lwrist 42.5578
lhand -45.8732 -746.914
lfingers 7.12502
lthumb -18.6237 2.21439
rfemur -39.3206 -8.89921 55.2385
rtibia 56.5025
rfoot -7.24788 -12.8965
rtoes -27.349
lfemur -99.3003 24.9851 0.977773
ltibia 66.6227
lfoot -28.7001 26.1414
ltoes 9.42813
488
root 2.84696 14.952 30.7149 619.918 11.1212 -132.591
lowerback 20.8611 0.607606 -18.6081
upperback -3.09734 -4.50843 -9.04627
thorax -14.1384 -0.646748 1.40425
lowerneck -30.0251 6.63295 0.0773826
upperneck 2.8573 8.82876 5.65714
head 5.1049 5.08963 2.94663
rclavicle 3.49861e-014 6.36111e-014
rhumerus -11.4502 -16.873 4.72651
rradius 31.7401
rwrist -2.38755
rhand -28.7954 -421.391
rfingers 7.12502
rthumb 177.846 -88.6398
lclavicle 3.49861e-014 6.36111e-014
lhumerus 27.6812 17.5098 13.8857
lradius 27.2633
lwrist 42.5207
lhand -45.7234 -746.004
lfingers 7.12502
lthumb -18.4797 3.13787
rfemur -39.3852 -8.61551 55.0524
rtibia 58.1316
rfoot -8.2602 -12.6955
rtoes -25.2155
lfemur -98.1156 24.6343 -0.145355
ltibia 66.5972
lfoot -28.277 26.7616
ltoes 9.72368
489
root 2.81152 15.021 30.8576 618.948 13.4688 -132.671
lowerback 21.2506 0.912183 -19.2659
upperback -3.03091 -4.36368 -9.28079
thorax -14.252 -0.52055 1.41726
lowerneck -29.7215 6.70689 0.127879
upperneck 3.15491 8.87247 5.82252
head 5.15709 5.11753 2.99546
rclavicle -9.22361e-014 -6.2816e-014
rhumerus -12.6254 -20.0443 2.07431
rradius 32.4387
rwrist 1.82531
rhand -29.06 -421.514
rfingers 7.12502
rthumb 177.59 -88.5202
lclavicle -9.22361e-014 -6.2816e-014
lhumerus 26.4137 16.3406 15.0323
lradius 27.3449
lwrist 42.6657
lhand -45.4916 -745.432
lfingers 7.12502
lthumb -18.2567 3.73118
rfemur -39.2979 -8.72966 54.8524
rtibia 59.1369
rfoot -9.09608 -12.4972
rtoes -25.3715
lfemur -96.9587 24.3557 -1.57347
ltibia 66.4046
lfoot -27.9095 27.112
ltoes 9.96256
490
root 2.78148 15.09 30.9977 618.017 15.8108 -132.799
lowerback 21.794 0.81017 -19.7359
upperback -3.78684 -4.94041 -10.1426
thorax -15.4197 -0.607911 0.842066
lowerneck -26.0382 7.5994 2.79794
upperneck 2.7261 9.35196 5.43067
head 4.65385 5.31921 2.35488
rclavicle 4.13472e-014 -6.59965e-014
rhumerus -11.7082 -13.6178 0.530594
rradius 31.883
rwrist -2.1377
rhand -28.4803 -423.775
rfingers 7.12502
rthumb 178.15 -86.2531
lclavicle 4.13472e-014 -6.59965e-014
lhumerus 23.6503 12.156 13.3094
lradius 28.4089
lwrist 44.9581
lhand -45.0508 -745.422
lfingers 7.12502
lthumb -17.8325 3.78026
rfemur -38.9904 -9.0066 54.5955
rtibia 59.5192
rfoot -9.93292 -11.9572
rtoes -24.6223
lfemur -95.841 24.2234 -3.12749
ltibia 66.1091
lfoot -27.7415 26.8807
ltoes 10.5617
